<svg width="28" height="28" viewBox="0 0 28 28" fill="none" xmlns="http://www.w3.org/2000/svg">
<path d="M28 14C28 21.732 21.732 28 14 28C6.26801 28 0 21.732 0 14C0 6.26801 6.26801 0 14 0C21.732 0 28 6.26801 28 14Z" fill="#027DFF"/>
<path d="M7.00001 7.58334H19.5263C19.5263 7.58334 21 8.29631 21 10.0787C21 11.8611 19.5263 12.5741 19.5263 12.5741H7.00001C7.00001 12.5741 8.47369 11.8611 8.47369 10.0787C8.47369 8.29631 7.00001 7.58334 7.00001 7.58334ZM21 15.4259H8.47369C8.47369 15.4259 7.00001 16.1389 7.00001 17.9213C7.00001 19.7037 8.47369 20.4167 8.47369 20.4167H21C21 20.4167 19.5263 19.7037 19.5263 17.9213C19.5263 16.1389 21 15.4259 21 15.4259Z" fill="white"/>
</svg>
